<?xml version="1.0" standalone="no"?><!DOCTYPE svg PUBLIC "-//W3C//DTD SVG 1.1//EN" "http://www.w3.org/Graphics/SVG/1.1/DTD/svg11.dtd"><svg class="icon" width="200px" height="200.00px" viewBox="0 0 1024 1024" version="1.1" xmlns="http://www.w3.org/2000/svg"><path d="M59.392 708.448c-6.416-18.672 6.432-43.552 6.432-43.552C65.824 640 97.968 416 502.88 416c404.912 0 424.192 230.24 437.056 248.896 0 0 17.664 24.88 12.848 43.552-2.88 11.12-13.744 20.048-22.048 25.44a20.64 20.64 0 0 0-9.504 17.232c0.16 14.24-1.536 38.096-13.44 50.656-12.416 13.12-39.088 17.008-53.872 18.176a21.008 21.008 0 0 0-15.536 9.536c-6.64 10.032-19.776 25.216-39.84 28.288-20.464 3.136-45.248-9.104-59.36-17.52a19.232 19.232 0 0 0-21.6 1.472c-11.552 9.184-30.928 22.272-47.6 22.272-13.168 0-24.672-8.176-32.736-16.16-7.152-7.04-19.232-8.736-27.488-3.008-12.64 8.768-31.376 19.168-49.024 19.168-17.568 0-34.08-10.288-44.912-19.04a21.408 21.408 0 0 0-26.08-0.224c-11.136 8.8-27.92 19.264-44.704 19.264-17.648 0-35.28-11.584-46.368-20.608a19.936 19.936 0 0 0-23.76-0.96c-12.88 9.152-33.712 21.568-52 21.568-17.184 0-32.112-11.008-41.392-19.92-6.08-5.856-15.616-7.712-23.2-4.016-13.232 6.4-34.032 14.4-51.088 11.488-17.728-3.04-31.408-17.856-38.816-27.888a21.056 21.056 0 0 0-17.408-8.512c-13.232 0.448-34.88-0.976-46.608-13.376-11.968-12.64-13.616-36.72-13.44-50.928a20.56 20.56 0 0 0-9.12-17.04c-8-5.392-18.608-14.288-22.432-25.36z" fill="#FFFFFF" /><path d="M48.64 676.416c-3.872 13.808-4.08 25.792-0.592 35.936 2.304 6.672 6.416 13.072 12.352 19.232 4.128 4.288 9.04 8.352 14.704 12.16a8.88 8.88 0 0 1 2.88 3.184 7.6 7.6 0 0 1 0.96 3.76 136.32 136.32 0 0 0 2.4 28.576c2.656 13.232 7.44 23.488 14.336 30.768 6.912 7.296 16.544 12.288 28.912 14.976 8.08 1.76 17.024 2.464 26.8 2.144a8 8 0 0 1 4.048 0.896 8.96 8.96 0 0 1 3.312 2.736c5.44 7.376 11.328 13.632 17.616 18.752 9.248 7.52 18.848 12.144 28.832 13.856 9.376 1.6 20.08 0.768 32.128-2.512a150.624 150.624 0 0 0 26.208-10.032 7.68 7.68 0 0 1 4.816-0.544 9.12 9.12 0 0 1 4.832 2.416c6.544 6.288 13.296 11.36 20.272 15.184 9.84 5.392 19.648 8.096 29.456 8.096 9.952 0 20.976-2.832 33.088-8.48 8.368-3.904 16.976-9.008 25.84-15.296a7.088 7.088 0 0 1 4.544-1.248c1.808 0.08 3.376 0.64 4.688 1.728 7.68 6.24 15.312 11.28 22.928 15.104 10.864 5.456 21.2 8.192 31.04 8.192 9.392 0 19.296-2.512 29.68-7.52a122.64 122.64 0 0 0 22.448-14.336 8.832 8.832 0 0 1 5.504-1.744 8.8 8.8 0 0 1 5.6 1.904c7.376 5.952 14.816 10.72 22.304 14.288 10.336 4.944 20.384 7.408 30.144 7.408 9.632 0 20.032-2.432 31.184-7.296a146.288 146.288 0 0 0 24.672-14.016 8.32 8.32 0 0 1 5.92-1.232c2.528 0.32 4.64 1.28 6.304 2.928 5.536 5.472 11.232 9.824 17.104 13.04a49.904 49.904 0 0 0 24.064 6.576c9.424 0 19.872-3.04 31.328-9.072 7.68-4.064 15.616-9.344 23.76-15.824a6.864 6.864 0 0 1 3.904-1.456 6.832 6.832 0 0 1 4.048 0.912c10.144 6.048 19.952 10.736 29.456 14.096 14.176 5.008 26.8 6.672 37.872 4.992 11.104-1.712 21.36-6.4 30.752-14.128a86.784 86.784 0 0 0 17.28-19.408 9.952 9.952 0 0 1 3.072-3.008 7.504 7.504 0 0 1 3.408-1.184c11.04-0.88 21.072-2.544 30.064-5.008 14.032-3.84 24.56-9.472 31.584-16.88 6.848-7.248 11.616-17.44 14.288-30.56 1.744-8.56 2.56-18.064 2.432-28.48 0-1.296 0.32-2.576 1.04-3.84a9.2 9.2 0 0 1 2.992-3.2c5.952-3.872 11.024-7.984 15.2-12.336 6.144-6.4 10.128-13.12 11.936-20.16 2.72-10.496 0.96-22.72-5.28-36.672a109.792 109.792 0 0 0-9.408-16.848c-0.24-0.352-1.472-4.032-3.664-11.008a469.376 469.376 0 0 0-9.056-26.464 297.28 297.28 0 0 0-16.224-35.36 283.488 283.488 0 0 0-66.496-81.488c-35.536-30.16-79.456-53.536-131.728-70.096-62.096-19.68-135.328-29.52-219.664-29.52-94.656 0-175.696 12.032-243.136 36.096-55.52 19.808-100.784 47.328-135.744 82.56a266.944 266.944 0 0 0-36.8 46.176 241.328 241.328 0 0 0-21.216 42.4c-4.352 11.392-7.6 22.56-9.744 33.504a122.144 122.144 0 0 0-2.32 17.28 102.736 102.736 0 0 0-5.248 14.4z m29.04 38.512c-3.488-3.6-5.792-7.072-6.928-10.4a26.08 26.08 0 0 1-1.088-10.032c0.224-3.552 0.912-7.408 2.08-11.568a78.752 78.752 0 0 1 4.752-12.528l1.328-2.592v-2.912c0-3.744 0.64-8.912 1.952-15.52 1.888-9.616 4.752-19.472 8.608-29.6 5.008-13.12 11.376-25.84 19.136-38.192a243.088 243.088 0 0 1 33.504-42.016c32.4-32.656 74.656-58.288 126.768-76.88 64.832-23.12 143.2-34.688 235.072-34.688 81.872 0 152.672 9.472 212.416 28.4 49.2 15.6 90.352 37.44 123.456 65.52a263.024 263.024 0 0 1 45.872 50.24c5.44 7.824 10.464 15.952 15.04 24.4 5.584 10.256 10.56 21.088 14.928 32.496 2.512 6.544 5.36 14.896 8.56 25.072 1.44 4.576 2.464 7.728 3.104 9.488 1.248 3.552 2.56 6.288 3.888 8.224a85.728 85.728 0 0 1 7.056 12.72c1.856 4.16 3.136 8 3.84 11.52 0.736 3.728 0.768 6.848 0.128 9.36-0.768 2.992-2.784 6.176-6.032 9.568-2.88 3.024-6.528 5.952-10.928 8.8-4.592 2.976-8.24 6.88-10.912 11.68-2.768 4.96-4.112 10.224-4.048 15.776a112.032 112.032 0 0 1-1.968 23.424c-1.76 8.64-4.48 14.928-8.208 18.848-3.936 4.16-10.768 7.568-20.48 10.24a138.096 138.096 0 0 1-25.6 4.208 31.168 31.168 0 0 0-14.256 4.768c-4.16 2.608-7.632 5.984-10.368 10.112a62.96 62.96 0 0 1-12.48 14.096c-6.016 4.944-12.4 7.92-19.168 8.96-7.104 1.088-15.84-0.208-26.24-3.888a142.336 142.336 0 0 1-25.168-12.08 30.304 30.304 0 0 0-17.968-4.256 30.336 30.336 0 0 0-17.216 6.64 130.24 130.24 0 0 1-20.016 13.36c-7.968 4.208-14.672 6.304-20.128 6.304-3.968 0-8.128-1.2-12.496-3.6a54.24 54.24 0 0 1-11.808-9.088 35.2 35.2 0 0 0-31.76-9.12c-4.016 0.88-7.68 2.48-10.992 4.768a122.496 122.496 0 0 1-20.608 11.744c-8.08 3.52-15.28 5.296-21.6 5.296-6.112 0-12.72-1.696-19.792-5.072a90.112 90.112 0 0 1-17.568-11.312 32.032 32.032 0 0 0-9.776-5.376 33.696 33.696 0 0 0-28.144 2.88 31.632 31.632 0 0 0-3.136 2.192c-6.16 4.864-12.16 8.72-18.016 11.552-7.088 3.424-13.504 5.136-19.248 5.136-6.032 0-12.784-1.872-20.256-5.632a102.336 102.336 0 0 1-18.528-12.272 32.176 32.176 0 0 0-28.848-5.936c-3.44 0.96-6.576 2.464-9.44 4.496-7.68 5.456-15.04 9.824-22.096 13.12-8.896 4.16-16.544 6.224-22.944 6.224-5.696 0-11.68-1.712-17.904-5.136a72.368 72.368 0 0 1-15.2-11.44 32.928 32.928 0 0 0-33.456-7.52c-1.12 0.384-2.224 0.832-3.296 1.36a126.992 126.992 0 0 1-22 8.464c-8.64 2.336-15.92 3.008-21.808 2-5.84-0.992-11.744-3.936-17.728-8.8a78.592 78.592 0 0 1-13.456-14.4 32.704 32.704 0 0 0-12.048-10.016 32.08 32.08 0 0 0-15.424-3.36 85.6 85.6 0 0 1-20.912-1.6c-7.52-1.632-13.056-4.32-16.576-8.016-3.728-3.952-6.48-10.272-8.224-19.008a112.544 112.544 0 0 1-1.92-23.52 31.216 31.216 0 0 0-3.888-15.52 32.512 32.512 0 0 0-10.56-11.632 67.376 67.376 0 0 1-10.832-8.928z" fill="#000000" /><path d="M512 264a698.976 698.976 0 0 1 100.176 7.2c31.872 4.608 63.008 11.376 93.424 20.304a628.176 628.176 0 0 1 84.768 31.52 551.136 551.136 0 0 1 74.256 40.976c22.88 15.104 43.52 31.36 61.904 48.768a344.224 344.224 0 0 1 47.552 55.088c13.504 19.712 23.776 39.76 30.848 60.16 7.376 21.312 11.072 42.512 11.072 63.584 0 13.168-1.328 24.816-4 34.976-2.896 11.136-7.472 20.704-13.664 28.672a66.4 66.4 0 0 1-8.864 9.376c-11.2 9.728-25.728 15.632-43.584 17.712-9.088 1.056-19.36 1.136-30.832 0.272a342.88 342.88 0 0 1-33.664-4.48 827.136 827.136 0 0 1-37.12-7.648c-8.592-1.952-22.16-5.152-40.72-9.6-25.392-6.112-44.96-10.672-58.688-13.728a1370.56 1370.56 0 0 0-64.384-12.752c-50.88-8.72-98.72-13.072-143.552-13.072-43.392 0-91.312 4.096-143.776 12.304-20.592 3.216-43.232 7.28-67.904 12.16-14.72 2.928-36 7.36-63.808 13.296-21.776 4.656-37.776 8.016-48 10.08a1155.12 1155.12 0 0 1-44.256 8.16c-15.04 2.416-28.464 4.08-40.24 4.992-13.536 1.04-25.648 1.152-36.352 0.32-26.512-2.048-46.88-10.176-61.136-24.4a71.232 71.232 0 0 1-4.064-4.416C14.448 638.544 8 617.808 8 591.584c0-21.056 3.68-42.256 11.072-63.568 7.056-20.4 17.344-40.448 30.848-60.16a344.16 344.16 0 0 1 47.552-55.088 450.64 450.64 0 0 1 61.904-48.752 551.136 551.136 0 0 1 74.256-40.992 628.176 628.176 0 0 1 84.768-31.52 675.296 675.296 0 0 1 112.32-22.784A699.264 699.264 0 0 1 512 264zM32 591.6C32 442.912 246.896 288 512 288c265.104 0 480 154.912 480 303.6 0 89.872-69.392 73.2-182.832 45.936-74.24-17.84-167.36-40.208-272.24-40.208-101.152 0-198.624 20.8-280.512 38.304C123.728 663.952 32 683.552 32 591.6z" fill="#050402" /><path d="M32 591.6C32 442.912 246.896 288 512 288c265.104 0 480 154.912 480 303.6 0 148.688-189.968 5.728-455.072 5.728C271.84 597.328 32 740.288 32 591.6z" fill="#FA7F45" /><path d="M88 456l32-32s44.48 33.024 84.8 90.752c35.2 50.4 43.632 108.288 45.2 122.144 0.016 0.096-34.32 7.2-34.32 7.2-1.408-13.312-8.48-58.864-42.368-107.36C133.008 479.008 88 456 88 456zM240 344l48-17.632s72.432 63.504 110.32 134.928c30.56 57.6 34.048 120.368 34.256 142.496 0 0-39.52 5.44-39.52 5.408-1.728-28.864-8.544-79.808-33.696-127.248C321.472 410.528 240 344 240 344zM438.272 292.16s49.728-3.968 50.592-3.968c25.44 30.176 68.4 85.744 92.352 142.4 35.52 84 29.264 170.4 29.264 170.4-0.032 0.032-39.168-2.96-39.168-2.96-0.304-30.32-4.48-91.12-29.664-150.704-27.92-66.016-81.632-130.544-103.36-155.168zM672 307.184s64.608 92.704 87.312 181.52c13.712 53.632 12.16 105.84 8.768 138.784l39.248 9.632c4.32-28.016 10.88-92.48-6.16-159.12-14.976-58.544-69.024-153.024-69.024-153.024l-30.08-8.896L672 307.184z" fill="#FFFFFF" /></svg>